<svg width="196" height="71" viewBox="0 0 196 71" fill="none" xmlns="http://www.w3.org/2000/svg">
<path d="M2.224 69.168C1.072 68.528 0.431999 67.824 0.303999 67.056C0.239999 66.288 0.687999 64.944 1.648 63.024C2.608 61.104 4.112 58.128 6.16 54.096C7.696 51.216 8.848 48.976 9.616 47.376C10.448 45.712 10.992 44.528 11.248 43.824C11.568 43.12 11.728 42.672 11.728 42.48C11.6 41.904 11.664 41.456 11.92 41.136C12.176 40.752 12.592 40.432 13.168 40.176C13.488 39.856 14 39.28 14.704 38.448C15.472 37.616 16.176 36.624 16.816 35.472C17.392 34.128 18.064 32.752 18.832 31.344C19.6 29.936 20.624 28.176 21.904 26.064C23.184 23.888 24.848 21.072 26.896 17.616C28.176 15.376 29.584 13.104 31.12 10.8C32.656 8.432 34.288 6.096 36.016 3.792C36.72 2.896 37.36 2.192 37.936 1.68C38.512 1.104 39.088 0.847998 39.664 0.911997C40.432 0.911997 41.296 1.168 42.256 1.68C43.28 2.192 44.208 2.86399 45.04 3.696C45.872 4.528 46.48 5.424 46.864 6.384C47.184 6.896 47.312 7.984 47.248 9.648C47.184 11.312 47.056 13.328 46.864 15.696C46.672 18.064 46.448 20.592 46.192 23.28C46 25.904 45.712 29.008 45.328 32.592C44.944 36.176 44.56 39.92 44.176 43.824C43.856 47.728 43.6 51.504 43.408 55.152C43.216 58.736 43.216 61.872 43.408 64.56C43.472 65.136 43.472 65.68 43.408 66.192C43.344 66.704 43.312 67.12 43.312 67.44C42.928 67.824 42.288 67.984 41.392 67.92C40.56 67.92 39.728 67.728 38.896 67.344C38.128 66.96 37.68 66.48 37.552 65.904C37.36 65.712 37.232 65.456 37.168 65.136C37.168 64.752 37.2 63.984 37.264 62.832C37.328 61.68 37.392 59.856 37.456 57.36L37.936 41.808L36.688 41.904C36.112 41.904 35.024 41.968 33.424 42.096C31.824 42.224 30.096 42.416 28.24 42.672C26.384 42.864 24.656 43.088 23.056 43.344C21.52 43.536 20.464 43.728 19.888 43.92C19.312 43.92 18.608 44.304 17.776 45.072C17.008 45.84 16.272 46.832 15.568 48.048C15.312 48.944 14.832 49.904 14.128 50.928C13.488 51.888 13.168 52.528 13.168 52.848C12.72 53.168 12.336 53.552 12.016 54C11.76 54.448 11.632 54.672 11.632 54.672C11.632 55.056 11.312 56.016 10.672 57.552C10.096 59.024 9.36 60.688 8.464 62.544C7.568 64.336 6.672 65.904 5.776 67.248L3.76 70.32L2.224 69.168ZM22.096 38.256C22.096 38.256 22.416 38.192 23.056 38.064C23.76 37.936 24.56 37.808 25.456 37.68C26.416 37.488 27.28 37.392 28.048 37.392C30.736 36.752 32.688 36.336 33.904 36.144C35.12 35.888 35.952 35.76 36.4 35.76C36.912 35.76 37.36 35.856 37.744 36.048C38 36.368 38.224 36.56 38.416 36.624C38.672 36.688 38.8 36.72 38.8 36.72C38.864 36.592 38.96 35.856 39.088 34.512C39.216 33.168 39.376 31.504 39.568 29.52C39.824 27.536 40.048 25.488 40.24 23.376C40.496 21.2 40.688 19.216 40.816 17.424C40.944 15.568 41.04 14.16 41.104 13.2C41.168 11.984 41.232 10.896 41.296 9.936C41.36 8.912 41.392 8.4 41.392 8.4C41.008 8.4 40.176 9.104 38.896 10.512C37.68 11.92 36.304 13.776 34.768 16.08C33.232 18.384 31.792 20.848 30.448 23.472C29.808 24.688 29.2 25.776 28.624 26.736C28.048 27.696 27.6 28.176 27.28 28.176C27.152 28.304 26.768 28.88 26.128 29.904C25.552 30.864 24.912 31.984 24.208 33.264C23.504 34.48 22.928 35.6 22.48 36.624C22.032 37.584 21.904 38.128 22.096 38.256ZM57.0467 60.144C56.5987 59.76 56.0227 58.608 55.3187 56.688C54.6787 54.768 54.0387 52.528 53.3987 49.968C52.8227 47.344 52.3427 44.944 51.9587 42.768C51.7027 41.488 51.4147 40.4 51.0947 39.504C50.8387 38.608 50.6147 37.872 50.4227 37.296C50.1027 36.144 50.0067 35.184 50.1347 34.416C50.2627 33.648 50.7107 33.04 51.4787 32.592C51.7987 32.4 52.1827 32.272 52.6307 32.208C53.1427 32.08 53.5267 32.048 53.7827 32.112C54.5507 32.368 55.2547 33.552 55.8947 35.664C56.5347 37.712 57.1107 40.432 57.6227 43.824C57.8787 45.808 58.1987 47.504 58.5827 48.912C58.9667 50.32 59.1587 51.152 59.1587 51.408C59.4147 51.92 59.7027 52.432 60.0227 52.944C60.4067 53.392 60.8547 53.36 61.3667 52.848C61.6227 52.592 62.1347 52.016 62.9027 51.12C63.7347 50.224 64.5347 49.264 65.3027 48.24C66.6467 46.448 67.7027 44.976 68.4707 43.824C69.3027 42.672 70.2307 41.456 71.2547 40.176C71.7027 39.536 72.2147 38.832 72.7907 38.064C73.3667 37.296 73.9427 36.592 74.5187 35.952C75.1587 35.248 75.7347 34.832 76.2467 34.704C77.7827 34.448 78.6147 34.768 78.7427 35.664C78.8707 36.56 78.2947 37.904 77.0147 39.696C76.5027 40.464 76.0867 41.2 75.7667 41.904C75.5107 42.544 75.2547 42.992 74.9987 43.248C74.4867 44.272 73.6867 45.584 72.5987 47.184C71.5107 48.72 70.4547 50.16 69.4307 51.504C68.4067 52.784 67.7027 53.616 67.3187 54C67.0627 54.256 66.4867 54.736 65.5907 55.44C64.7587 56.144 63.9587 57.04 63.1907 58.128C61.6547 59.6 60.4387 60.496 59.5427 60.816C58.6467 61.136 57.8147 60.912 57.0467 60.144ZM93.916 62.64C92.572 63.792 91.004 64.464 89.212 64.656C87.484 64.848 85.788 64.592 84.124 63.888C82.46 63.12 81.084 61.968 79.996 60.432C78.908 59.024 78.204 57.424 77.884 55.632C77.564 53.776 77.532 51.376 77.788 48.432C77.98 45.936 78.78 43.44 80.188 40.944C81.596 38.384 83.292 36.112 85.276 34.128C87.324 32.144 89.34 30.768 91.324 30C92.284 29.36 93.084 29.072 93.724 29.136C94.428 29.136 95.484 29.2 96.892 29.328C98.364 29.52 99.452 29.808 100.156 30.192C100.924 30.576 101.532 31.088 101.98 31.728C102.94 32.688 103.58 33.648 103.9 34.608C104.22 35.504 104.38 36.4 104.38 37.296C104.124 38.704 103.164 40.432 101.5 42.48C99.9 44.464 97.788 46.096 95.164 47.376C93.756 47.824 92.22 48.016 90.556 47.952C88.892 47.888 87.516 47.472 86.428 46.704C85.212 46.192 84.412 46.288 84.028 46.992C83.644 47.632 83.292 49.232 82.972 51.792C82.716 54.224 82.908 56.016 83.548 57.168C84.188 58.256 85.052 58.896 86.14 59.088C87.42 59.344 88.412 59.536 89.116 59.664C89.884 59.728 90.812 59.44 91.9 58.8C92.924 58.16 93.564 57.808 93.82 57.744C94.076 57.616 94.268 57.488 94.396 57.36C94.588 57.168 95.004 56.752 95.644 56.112C96.092 55.664 96.444 55.344 96.7 55.152C96.956 54.896 97.244 54.768 97.564 54.768C97.884 54.768 98.172 54.928 98.428 55.248C98.684 55.504 98.94 55.696 99.196 55.824C99.836 55.824 99.964 56.208 99.58 56.976C99.26 57.744 98.588 58.672 97.564 59.76C96.54 60.784 95.324 61.744 93.916 62.64ZM93.82 42.288C94.524 41.968 95.26 41.52 96.028 40.944C96.796 40.304 97.436 39.632 97.948 38.928C98.524 38.16 98.812 37.52 98.812 37.008C98.812 36.112 98.396 35.376 97.564 34.8C96.732 34.16 95.484 34.064 93.82 34.512C93.116 34.704 92.316 35.184 91.42 35.952C90.524 36.656 89.66 37.456 88.828 38.352C88.06 39.248 87.42 40.048 86.908 40.752C86.46 41.456 86.3 41.872 86.428 42C86.62 42.32 87.164 42.576 88.06 42.768C88.956 42.896 89.948 42.928 91.036 42.864C92.188 42.8 93.116 42.608 93.82 42.288ZM113.519 65.136C111.919 65.264 110.383 65.168 108.911 64.848C107.503 64.528 106.287 63.984 105.263 63.216C104.303 62.384 103.631 61.392 103.247 60.24C102.799 59.344 102.575 58.736 102.575 58.416C102.575 58.032 102.799 57.712 103.247 57.456C103.759 57.456 104.207 57.616 104.591 57.936C105.039 58.192 105.615 58.48 106.319 58.8C107.279 59.632 108.431 60.08 109.775 60.144C111.183 60.208 112.463 59.984 113.615 59.472C114.767 58.96 115.407 58.32 115.535 57.552C115.535 57.296 115.439 56.848 115.247 56.208C115.055 55.568 114.831 54.896 114.575 54.192C112.847 51.76 111.567 49.36 110.735 46.992C109.967 44.56 109.583 42.576 109.583 41.04C109.583 39.888 109.935 38.672 110.639 37.392C111.343 36.048 112.303 34.928 113.519 34.032C114.671 32.816 115.951 31.728 117.359 30.768C118.767 29.808 120.175 28.976 121.583 28.272C123.055 27.568 124.367 27.056 125.519 26.736C126.223 26.736 127.151 26.832 128.303 27.024C129.455 27.216 130.255 27.44 130.703 27.696C131.407 27.952 132.079 28.656 132.719 29.808C133.359 30.896 133.679 31.984 133.679 33.072C133.679 33.52 133.551 34.096 133.295 34.8C133.039 35.504 132.623 36.336 132.047 37.296C131.791 38 131.503 38.672 131.183 39.312C130.863 39.888 130.703 40.304 130.703 40.56C130.383 41.264 129.935 41.616 129.359 41.616C128.847 41.552 128.303 41.264 127.727 40.752C127.215 40.176 126.799 39.504 126.479 38.736C126.223 37.776 126.127 37.008 126.191 36.432C126.255 35.792 126.511 35.12 126.959 34.416C127.663 33.712 128.015 33.232 128.015 32.976C128.015 32.72 127.663 32.592 126.959 32.592C126.511 32.592 125.679 32.88 124.463 33.456C123.311 33.968 122.063 34.672 120.719 35.568C119.439 36.4 118.319 37.296 117.359 38.256C116.143 39.408 115.407 40.24 115.151 40.752C114.959 41.264 114.863 42.064 114.863 43.152C114.863 44.048 115.055 45.168 115.439 46.512C115.887 47.856 116.335 48.752 116.783 49.2C116.783 49.2 117.007 49.648 117.455 50.544C117.903 51.376 118.447 52.272 119.087 53.232C120.943 57.328 121.423 60.272 120.527 62.064C119.631 63.856 117.295 64.88 113.519 65.136ZM142.109 64.656C138.909 64.656 136.573 63.504 135.101 61.2C134.653 60.56 134.429 59.92 134.429 59.28C134.493 58.576 134.685 58.096 135.005 57.84C135.389 57.584 135.837 57.808 136.349 58.512C137.245 59.024 138.525 59.28 140.189 59.28C141.021 59.28 141.885 59.216 142.781 59.088C143.677 58.896 144.573 58.64 145.469 58.32C146.429 57.872 147.069 57.488 147.389 57.168C147.709 56.784 147.645 56.464 147.197 56.208H147.293C145.629 55.76 143.933 55.056 142.205 54.096C140.541 53.072 139.101 51.984 137.885 50.832C136.669 49.616 135.965 48.528 135.773 47.568C135.261 45.584 135.389 43.568 136.157 41.52C136.925 39.408 138.013 37.552 139.421 35.952C139.933 35.632 140.573 35.248 141.341 34.8C142.109 34.288 142.717 34 143.165 33.936V34.032C144.381 32.752 145.853 31.728 147.581 30.96C149.373 30.192 151.261 29.488 153.245 28.848L154.685 28.656C155.453 28.528 156.093 28.464 156.605 28.464C156.541 28.464 156.669 28.528 156.989 28.656C157.309 28.72 157.597 28.784 157.853 28.848C158.237 29.04 158.557 29.136 158.813 29.136C159.645 29.264 160.413 29.648 161.117 30.288C161.821 30.928 162.365 31.696 162.749 32.592C163.197 33.424 163.357 34.224 163.229 34.992C163.101 36.208 162.717 37.296 162.077 38.256C161.501 39.216 160.797 39.76 159.965 39.888C160.093 39.824 159.997 39.728 159.677 39.6C159.421 39.408 159.133 39.216 158.813 39.024L158.525 39.216C158.525 39.216 158.493 39.152 158.429 39.024C158.429 38.832 158.365 38.608 158.237 38.352C158.045 37.968 157.949 37.552 157.949 37.104C157.949 36.592 157.981 36.048 158.045 35.472C158.173 34.768 158.173 34.352 158.045 34.224C157.981 34.096 157.565 34 156.797 33.936C155.901 33.744 154.589 33.904 152.861 34.416C151.197 34.928 149.789 35.632 148.637 36.528C147.229 37.424 146.045 38.288 145.085 39.12C144.125 39.888 143.357 40.656 142.781 41.424C142.205 42.128 141.693 42.96 141.245 43.92C140.925 44.368 140.637 44.816 140.381 45.264C140.189 45.648 140.093 46 140.093 46.32C140.093 47.024 140.605 47.76 141.629 48.528C142.717 49.232 144.317 50.064 146.429 51.024C148.093 51.728 149.501 52.496 150.653 53.328C151.805 54.16 152.605 55.12 153.053 56.208C153.181 56.464 153.213 56.784 153.149 57.168C153.149 57.488 153.085 57.712 152.957 57.84C153.085 57.968 153.149 58.064 153.149 58.128V58.032C153.661 58.8 153.661 59.6 153.149 60.432C152.701 61.264 151.901 62 150.749 62.64C149.661 63.216 148.317 63.664 146.717 63.984H146.813C145.981 64.24 145.149 64.432 144.317 64.56C143.549 64.624 142.813 64.656 142.109 64.656ZM172.236 62.352C170.892 62.608 170.028 62.704 169.644 62.64C169.324 62.512 168.812 62.128 168.108 61.488C167.084 60.976 166.22 60.336 165.516 59.568C164.876 58.8 164.396 58 164.076 57.168C163.82 56.272 163.724 55.536 163.788 54.96C163.98 52.72 164.524 50.32 165.42 47.76C166.316 45.2 167.404 42.736 168.684 40.368C169.964 38 171.34 35.984 172.812 34.32C174.348 32.592 175.82 31.472 177.228 30.96C178.508 30.448 179.724 30.256 180.876 30.384C182.028 30.512 182.86 31.12 183.372 32.208C184.332 34.064 184.108 35.248 182.7 35.76C182.508 35.76 182.284 35.856 182.028 36.048C181.772 36.176 181.644 36.368 181.644 36.624C181.9 36.752 182.604 36.784 183.756 36.72C184.908 36.592 186.06 36.4 187.212 36.144C188.428 35.824 189.228 35.504 189.612 35.184C189.996 34.992 190.284 34.896 190.476 34.896C190.668 34.896 191.148 34.96 191.916 35.088C193.004 35.408 193.548 35.792 193.548 36.24C193.548 36.496 193.644 36.752 193.836 37.008C194.028 37.2 194.252 37.296 194.508 37.296C194.956 37.36 194.892 37.648 194.316 38.16C193.804 38.672 192.908 39.376 191.628 40.272C190.412 41.04 189.644 41.552 189.324 41.808C189.068 42 189.036 42.448 189.228 43.152C189.74 44.368 189.772 45.776 189.324 47.376C188.876 48.976 188.076 50.608 186.924 52.272C185.772 53.936 184.364 55.504 182.7 56.976C181.1 58.384 179.372 59.6 177.516 60.624C175.724 61.584 173.964 62.16 172.236 62.352ZM170.604 58.128C170.86 58.128 171.308 58 171.948 57.744C172.588 57.424 173.1 57.168 173.484 56.976C173.74 56.72 174.06 56.432 174.444 56.112C174.892 55.728 175.244 55.504 175.5 55.44C175.756 55.44 176.076 55.344 176.46 55.152C176.844 54.896 177.388 54.416 178.092 53.712C178.796 52.944 179.724 51.824 180.876 50.352C182.156 48.944 183.148 47.664 183.852 46.512C184.556 45.296 184.748 44.176 184.428 43.152C184.364 42.896 184.172 42.736 183.852 42.672C183.596 42.608 183.244 42.448 182.796 42.192C182.156 42.192 181.548 42.032 180.972 41.712C180.46 41.328 179.852 40.848 179.148 40.272L177.612 38.352L175.98 39.984C174.956 41.008 173.868 42.544 172.716 44.592C171.628 46.576 170.7 48.624 169.932 50.736C169.164 52.784 168.716 54.416 168.588 55.632C168.524 56.592 168.684 57.232 169.068 57.552C169.452 57.872 169.964 58.064 170.604 58.128Z" fill="#2C2C2C"/>
</svg>
